<svg width="106" height="83" viewBox="0 0 106 83" fill="none" xmlns="http://www.w3.org/2000/svg">
<path fill-rule="evenodd" clip-rule="evenodd" d="M105.068 72.3532V23.3215C105.068 19.8639 103.398 16.7963 100.82 14.8817C99.0718 13.583 96.9062 12.8147 94.5611 12.8147H36.0733C34.797 12.6959 34.4255 12.1286 34.0996 10.8889C34.0739 10.791 34.0484 10.6888 34.0228 10.5823C33.5714 8.90715 32.6306 7.35378 31.3454 6.09542C29.4366 4.22655 26.7683 3.00841 23.8154 3.00841H10.5068C4.70405 3.00841 0 7.71245 0 13.5152V23.3215V24.7224V72.3532C0 78.156 4.70404 82.86 10.5068 82.86H94.5611C100.364 82.86 105.068 78.156 105.068 72.3532ZM85.4552 43.6347H77.0498C75.5024 43.6347 74.248 44.8891 74.248 46.4365V54.8419C74.248 56.3893 75.5024 57.6437 77.0498 57.6437H85.4552C87.0026 57.6437 88.257 56.3893 88.257 54.8419V46.4365C88.257 44.8891 87.0026 43.6347 85.4552 43.6347Z" fill="white"/>
<path d="M93.2464 8.02289C92.4388 2.27663 88.1766 -0.676288 82.4303 0.131297L33.9719 4.75955C34.9454 5.93526 35.6219 6.58663 36.0733 8.26182C36.1007 8.36357 36.1263 8.46578 36.1501 8.5684C36.4759 9.80807 36.5481 10.2443 37.8244 10.3632H93.1602C95.5053 10.3632 91.652 10.3632 93.5104 10.3632L93.2464 8.02289Z" fill="white"/>
</svg>
