<svg width="105" height="100" viewBox="0 0 105 100" fill="none" xmlns="http://www.w3.org/2000/svg">
<path d="M54.7345 1.03504L103.134 47.2152C105.578 49.5468 103.927 53.6669 100.55 53.6669H3.75089C0.373411 53.6669 -1.27684 49.5468 1.16677 47.2152L49.5662 1.03504C51.0126 -0.345013 53.2881 -0.345013 54.7345 1.03504Z" fill="white"/>
<path d="M90.7431 53.6669H13.0685V96.2566C13.0685 98.324 14.7444 100 16.8118 100H37.4003C39.4677 100 41.1437 98.324 41.1437 96.2566V65.8419H62.668V96.2566C62.668 98.324 64.3439 100 66.4113 100H86.9998C89.0672 100 90.7431 98.324 90.7431 96.2566V53.6669Z" fill="white"/>
</svg>
