<svg width="50" height="50" viewBox="0 0 50 50" fill="none" xmlns="http://www.w3.org/2000/svg">
<path d="M28.5156 50C26.2024 50 23.8891 50 21.5225 49.9667C20.9372 49.6408 20.6469 49.1807 20.5065 48.5992C20.0903 46.8754 19.6662 45.1534 19.2323 43.4339C19.204 43.3216 19.0866 43.1923 18.9785 43.1462C18.3319 42.8707 17.6321 42.6911 17.0347 42.3367C16.3795 41.9481 15.8229 41.8612 15.233 42.3822C15.186 42.4237 15.1316 42.4578 15.0776 42.4901C14.0278 43.1186 12.986 43.7611 11.9244 44.3691C11.1686 44.8021 10.5081 44.7246 9.93417 44.1569C8.55816 42.796 7.1921 41.425 5.82688 40.0532C5.42115 39.6455 5.20134 38.8577 5.5598 38.2753C6.36595 36.9657 7.14253 35.6378 7.91579 34.3083C8.00505 34.1548 8.07871 33.9126 8.02097 33.7662C7.64804 32.8206 7.23997 31.8887 6.83196 30.9574C6.79535 30.8738 6.68637 30.7896 6.59569 30.7669C5.39282 30.4657 4.17518 30.2167 2.98589 29.8701C1.93344 29.5633 0.69637 29.6209 0 28.5156C0 26.2024 -5.82077e-09 23.8891 0.0333252 21.5225C0.35918 20.9372 0.81938 20.6469 1.40089 20.5065C3.12488 20.0903 4.84701 19.6662 6.56663 19.2323C6.67885 19.204 6.80724 19.0863 6.85435 18.978C7.18498 18.2183 7.50926 17.4551 7.80297 16.6807C7.86348 16.5211 7.84915 16.273 7.7638 16.1276C6.91344 14.6796 6.03212 13.2497 5.17793 11.8038C4.65191 10.9135 4.80323 10.3424 5.44585 9.66247C6.68548 8.35088 7.98467 7.09535 9.26617 5.82364C10.0165 5.07906 10.822 5.14936 11.3446 5.452C12.8247 6.30917 14.2816 7.20647 15.7538 8.07749C15.847 8.13264 16.0114 8.14105 16.1121 8.09866C17.0781 7.69208 18.0392 7.27354 18.9965 6.84666C19.0947 6.80288 19.2063 6.69454 19.2313 6.59582C19.5354 5.39362 19.7832 4.17555 20.1299 2.98619C20.4368 1.93367 20.3791 0.696465 21.4844 0C23.7976 0 26.1109 0 28.4775 0.0333248C29.0626 0.359078 29.3538 0.818863 29.4933 1.4004C29.9105 3.14001 30.3359 4.87768 30.7679 6.61367C30.7895 6.70032 30.8892 6.79544 30.9758 6.83365C31.8774 7.2312 32.7812 7.62427 33.6924 7.9991C33.8 8.04338 33.978 8.00973 34.0855 7.94716C35.4956 7.12669 36.9031 6.30168 38.3017 5.46191C38.9007 5.10221 39.7824 5.25602 40.2672 5.74397C41.5967 7.08196 42.9393 8.40698 44.2649 9.74877C44.8049 10.2954 44.8836 11.176 44.4968 11.8049C43.6663 13.1552 42.8353 14.5054 42.0209 15.8655C41.9502 15.9834 41.9483 16.195 42.0026 16.3269C42.3715 17.2234 42.7601 18.112 43.1545 18.9977C43.1982 19.0957 43.3072 19.2064 43.4061 19.2315C44.608 19.5355 45.8257 19.7834 47.0148 20.1299C48.0671 20.4366 49.3038 20.3794 50 21.4844C50 23.7976 50 26.1109 49.9667 28.4775C49.641 29.0626 49.181 29.353 48.5997 29.4934C46.8764 29.9097 45.1549 30.3338 43.4359 30.7675C43.3235 30.7959 43.1948 30.9118 43.1468 31.0196C42.7658 31.8764 42.397 32.7388 42.0405 33.6061C41.9958 33.7149 41.9996 33.8892 42.0577 33.9879C42.83 35.2991 43.6191 36.6004 44.3975 37.908C44.9154 38.7781 44.8941 39.5134 44.1473 40.2704C42.9027 41.532 41.6474 42.7833 40.3887 44.0309C39.7037 44.7099 39.0957 44.825 38.2541 44.3507C36.9566 43.6194 35.6929 42.8284 34.4023 42.0845C34.2249 41.9822 33.9411 41.9164 33.7651 41.9846C32.8326 42.3462 31.9171 42.7521 31.001 43.1548C30.9033 43.1977 30.7935 43.3079 30.7685 43.4068C30.4645 44.6086 30.2165 45.8261 29.8701 47.0151C29.5634 48.0673 29.6206 49.3039 28.5156 50ZM16.2624 19.8219C15.4547 21.0385 14.9945 22.4042 14.8704 23.8296C14.7364 25.369 14.8473 26.9004 15.4052 28.4032C16.1732 30.4719 17.4232 32.1382 19.2084 33.3825C21.5008 34.9804 24.0891 35.5247 26.8163 35.0334C29.2115 34.6019 31.2374 33.4238 32.8104 31.5066C34.7424 29.152 35.4677 26.4828 35.0621 23.4781C34.7877 21.4451 33.9075 19.6891 32.5664 18.1814C31.2696 16.7235 29.6447 15.7422 27.7565 15.1922C26.2157 14.7433 24.6533 14.7097 23.1012 14.9774C21.5225 15.2497 20.0849 15.9314 18.8093 16.908C17.7888 17.6893 16.9177 18.6155 16.2624 19.8219Z" fill="white"/>
</svg>
