<svg width="21" height="22" viewBox="0 0 21 22" fill="none" xmlns="http://www.w3.org/2000/svg">
<path fill-rule="evenodd" clip-rule="evenodd" d="M10.5 22C16.299 22 21 17.0751 21 11C21 4.92487 16.299 0 10.5 0C4.70101 0 0 4.92487 0 11C0 17.0751 4.70101 22 10.5 22ZM4.58157 10.4482C6.96923 9.08389 8.92152 7.58255 9.88289 5.00613C10.0281 4.61706 10.2272 4.39998 10.5004 4.39998C10.7737 4.39998 10.9728 4.61706 11.118 5.00613C12.0794 7.58256 14.0317 9.08389 16.4193 10.4482C16.6659 10.5891 16.8004 10.7693 16.8004 11C16.8004 11.2306 16.6659 11.4109 16.4193 11.5518C14.0317 12.9161 12.0794 14.4174 11.118 16.9938C10.9728 17.3829 10.7737 17.6 10.5004 17.6C10.2272 17.6 10.0281 17.3829 9.88289 16.9938C8.92152 14.4174 6.96923 12.9161 4.58157 11.5518C4.33499 11.4109 4.20044 11.2306 4.20044 11C4.20044 10.7693 4.33499 10.5891 4.58157 10.4482Z" fill="#84C382"/>
</svg>
