<svg width="93" height="80" viewBox="0 0 93 80" fill="none" xmlns="http://www.w3.org/2000/svg">
<path d="M46.7357 57.0662C46.9339 57.4625 47.4158 57.6231 47.8121 57.425C48.2051 57.2285 48.37 56.7558 48.1869 56.3564C47.3429 54.5143 45.1963 49.5663 45.2451 46.9894C44.8527 47.1043 44.5127 47.1374 44.241 47.0831C43.1509 46.8651 42.1719 46.5582 41.2925 46.1798L46.7357 57.0662Z" fill="#2C917E"/>
<path d="M92.7508 11.4141C92.7508 85.6056 92.7508 79.8985 0.01147 79.8985C0.01147 28.1928 -1.48794 11.1696 29.8002 11.1131V27.3107C17.7719 27.8809 17.846 38.8015 17.846 63.4908C77.7698 63.4908 75.6297 66.3443 75.6297 27.1084C70.2753 27.1084 70.2167 27.0698 65.8081 27.0347L61.4487 27.0319V11.1199C70.694 11.2152 80.5267 11.4141 92.7508 11.4141Z" fill="#2C917E"/>
<path d="M42.1008 0C41.3875 13.5542 33.5403 19.569 33.5403 31.3887C33.5403 33.9515 33.5403 42.8442 41.2925 46.1798C42.1719 46.5582 43.1509 46.8651 44.241 47.0831C44.5127 47.1374 44.8527 47.1043 45.2451 46.9894C48.8946 45.9211 57.0818 37.7804 57.0818 27.1084C57.0818 15.2888 53.5149 12.1275 42.1008 0Z" fill="#2C917E"/>
</svg>
