<svg width="19" height="16" viewBox="0 0 19 16" fill="none" xmlns="http://www.w3.org/2000/svg">
<path d="M9.34485 11.4132C9.38448 11.4925 9.48086 11.5246 9.56012 11.485C9.63873 11.4457 9.6717 11.3512 9.63509 11.2713C9.46629 10.9029 9.03696 9.91326 9.04673 9.39788C8.96824 9.42086 8.90024 9.42748 8.8459 9.41661C8.62789 9.37301 8.43208 9.31164 8.25622 9.23597L9.34485 11.4132Z" fill="#2C917E"/>
<path d="M18.5479 2.28282C18.5479 17.1211 18.5479 15.9797 0 15.9797C0 5.63856 0.500118 2.83392 5.95774 2.22262V5.46215C3.35209 5.97618 3.5669 7.7603 3.5669 12.6982C15.5517 12.6982 15.1236 13.2689 15.1236 5.42169C14.0528 5.42169 14.041 5.41396 13.1593 5.40695L12.2874 5.40638V2.22397C14.1365 2.24303 16.103 2.28282 18.5479 2.28282Z" fill="#2C917E"/>
<path d="M8.41788 0C8.2752 2.71084 6.70577 3.91381 6.70577 6.27774C6.70577 6.79031 6.70577 8.56884 8.25622 9.23597C8.43208 9.31164 8.62789 9.37301 8.8459 9.41661C8.90024 9.42748 8.96824 9.42086 9.04673 9.39788C9.77663 9.18422 11.4141 7.55609 11.4141 5.42169C11.4141 3.05775 10.7007 2.42549 8.41788 0Z" fill="#2C917E"/>
</svg>
