<svg width="143" height="100" viewBox="0 0 143 100" fill="none" xmlns="http://www.w3.org/2000/svg">
<path d="M33.3813 80.0139L0.63845 99.0504L7.54735 49.9205L37.2199 33.1821L33.3813 80.0139ZM69.5787 99.1309L36.7446 80.0413L40.5912 33.1123L69.5787 49.8946V99.1309ZM105.3 33.1821L134.972 49.9205L141.881 99.0504L109.138 80.0139L105.3 33.1821ZM105.775 80.0413L72.9409 99.1309V49.9073L79.0669 46.6642L83.1079 50.1278C83.9864 50.8809 85.3113 50.7697 86.052 49.8808L98.7423 34.6524L101.924 33.0614L105.775 80.0413ZM101.007 17.515C101.007 19.7846 100.275 22.3869 99.0845 25.1094C97.8969 27.8261 96.2682 30.6285 94.5096 33.2888C90.9924 38.6096 86.9823 43.3222 85.0182 45.5891C84.5931 46.0798 83.8577 46.0834 83.4501 45.6158C81.495 43.3726 77.6385 38.659 74.274 33.3305C72.5918 30.6664 71.0387 27.858 69.9073 25.1348C68.7738 22.4062 68.0771 19.7945 68.0771 17.515C68.0771 12.1611 69.5698 7.91977 72.3379 5.01946C75.1027 2.12259 79.2005 0.5 84.5419 0.5C89.8832 0.5 93.981 2.12259 96.7458 5.01946C99.5139 7.91977 101.007 12.1611 101.007 17.515ZM84.2519 26.7725C87.1574 26.7725 89.5569 25.878 91.2309 24.204C92.9048 22.5301 93.7994 20.1306 93.7994 17.2251C93.7994 14.3196 92.9048 11.9201 91.2309 10.2461C89.5569 8.57216 87.1574 7.67763 84.2519 7.67763C81.3464 7.67763 78.9469 8.57216 77.273 10.2461C75.599 11.9201 74.7045 14.3196 74.7045 17.2251C74.7045 20.1306 75.599 22.5301 77.273 24.204C78.9469 25.878 81.3464 26.7725 84.2519 26.7725Z" fill="white" stroke="white"/>
</svg>
