<svg width="66" height="50" viewBox="0 0 66 50" fill="none" xmlns="http://www.w3.org/2000/svg">
<path d="M65.7365 25.9544C65.3647 26.7073 65.0893 27.4793 64.6 28.076C63.7231 29.1456 62.4653 29.5962 61.1138 29.5983C49.0933 29.6173 37.0727 29.6304 25.0524 29.5904C22.8228 29.583 21.0979 28.4956 20.4833 26.1091C19.8443 23.6277 21.3151 20.845 24.2804 20.4977C24.9071 20.4242 25.5405 20.371 26.1708 20.3706C37.7849 20.3631 49.399 20.3488 61.0131 20.3792C63.2677 20.3851 64.7689 21.4819 65.5367 23.4417C65.5965 23.5943 65.6072 23.7661 65.6887 23.9445C65.7365 24.6049 65.7365 25.2497 65.7365 25.9544Z" fill="white"/>
<path d="M65.7365 7.85104C65.3665 8.56051 65.026 9.22907 64.6197 9.85492C64.0013 10.8076 63.0008 11.2139 61.9556 11.3519C60.7838 11.5066 59.5858 11.4994 58.3992 11.5004C47.4495 11.51 36.4999 11.5065 25.5503 11.5055C24.1837 11.5054 22.8924 11.2035 21.8504 10.2865C21.0764 9.60533 20.5616 8.71128 20.4219 7.67012C20.1962 5.98792 20.6125 4.5094 21.9417 3.36533C22.7204 2.69506 23.6371 2.2765 24.6487 2.27483C36.8814 2.25476 49.1143 2.25024 61.347 2.27372C63.2875 2.27745 65.131 3.60298 65.6894 5.71379C65.7365 6.41594 65.7365 7.10347 65.7365 7.85104Z" fill="white"/>
<path d="M65.7364 44.186C65.275 44.9859 64.8984 45.8001 64.3313 46.4472C63.5626 47.3242 62.4743 47.7033 61.3172 47.7046C49.1059 47.7177 36.8944 47.733 24.6831 47.6939C22.4814 47.6869 20.5802 45.8666 20.3964 43.6129C20.2841 42.2356 20.6311 41.036 21.5118 40.0298C22.2054 39.2373 23.1307 38.7006 24.2024 38.6116C25.4694 38.5062 26.7456 38.4752 28.0178 38.4741C38.9033 38.4642 49.7887 38.4651 60.6742 38.4727C62.0132 38.4736 63.2907 38.7925 64.3048 39.698C64.9857 40.3059 65.4646 41.1018 65.6893 42.0487C65.7364 42.7509 65.7364 43.4385 65.7364 44.186Z" fill="white"/>
<path d="M4.1774e-10 23.2499C0.211314 22.7825 0.414003 22.3705 0.635359 21.9688C1.95073 19.5816 3.87717 18.218 6.6941 18.1678C9.41116 18.1194 11.4232 19.3355 12.7674 21.563C13.8465 23.3515 13.9358 25.3592 13.2358 27.3478C12.5471 29.3044 11.2037 30.7055 9.26329 31.382C6.98771 32.1754 4.76499 32.0272 2.75597 30.5084C1.37624 29.4653 0.418208 28.159 0.0482729 26.4156C-1.26271e-07 25.3697 -1.27974e-07 24.3399 4.1774e-10 23.2499Z" fill="white"/>
<path d="M4.25772e-10 41.7384C0.315374 40.9575 0.554845 40.1903 0.961039 39.525C1.98262 37.8517 3.47318 36.794 5.41879 36.413C7.30694 36.0433 9.07987 36.3294 10.6545 37.4496C12.5037 38.765 13.4916 40.5388 13.6328 42.8626C13.8359 46.2023 11.3981 49.2042 8.16183 49.8529C6.02908 50.2805 4.0881 49.7719 2.3979 48.3778C1.24583 47.4276 0.518796 46.204 0.0464506 44.7735C-1.18618e-07 43.7726 -1.27966e-07 42.7856 4.25772e-10 41.7384Z" fill="white"/>
<path d="M0 5.53181C0.421089 4.59709 0.747788 3.65925 1.28291 2.86115C2.39892 1.19667 4.00512 0.312333 6.02115 0.0571927C7.5847 -0.140684 9.00687 0.178015 10.3001 0.964927C11.9571 1.97322 13.112 3.40192 13.4867 5.37937C13.8311 7.19725 13.6231 8.92672 12.6218 10.4893C11.5859 12.1059 10.1329 13.189 8.20764 13.5608C6.50747 13.8892 4.89732 13.6862 3.38455 12.7974C1.60184 11.75 0.486018 10.2384 0.048566 8.18424C2.56368e-07 7.30924 2.56784e-07 6.4506 0 5.53181Z" fill="white"/>
</svg>
