<svg width="49" height="50" viewBox="0 0 49 50" fill="none" xmlns="http://www.w3.org/2000/svg">
<path fill-rule="evenodd" clip-rule="evenodd" d="M48.5294 25C48.5294 38.5364 39.7507 49.5098 28.9216 49.5098C18.0924 49.5098 9.31373 38.5364 9.31373 25C9.31373 11.4636 18.0924 0.490196 28.9216 0.490196C39.7507 0.490196 48.5294 11.4636 48.5294 25ZM30.8527 15.451C30.8725 17.5639 30.8803 20.1965 30.882 23.4766C32.6861 23.9311 34.1163 24.7176 35.1375 25.8787C36.408 27.323 36.8661 29.1423 36.8661 31.0514C36.8661 32.9368 35.8418 34.6201 34.4841 35.7855C33.472 36.6544 32.1944 37.3099 30.8082 37.5924C30.6879 43.0742 30.3852 43.1373 29.6569 43.1373C28.9335 43.1373 28.63 43.0751 28.508 37.7059C26.5163 37.5108 24.7811 36.6061 23.4622 35.4286C21.9858 34.1105 20.9257 32.3568 20.6122 30.6394C20.4663 29.8404 20.9957 29.0745 21.7947 28.9286C22.5937 28.7827 23.3596 29.3121 23.5055 30.1111C23.6821 31.0783 24.3453 32.2743 25.421 33.2346C26.2737 33.9959 27.3176 34.5487 28.4628 34.7352C28.4407 32.483 28.4327 29.6273 28.4316 26.0063C26.3911 25.6327 24.7352 24.9937 23.5684 23.8723C22.2186 22.5751 21.7545 20.865 21.7545 18.9486C21.7545 15.5017 24.6187 12.323 28.5089 12.256C28.6315 6.9246 28.9353 6.86275 29.6569 6.86275C30.3864 6.86275 30.6889 6.92596 30.8088 12.4328C31.9746 12.6387 33.0016 13.0268 33.8874 13.615C35.3001 14.5528 36.2063 15.9013 36.7769 17.4638C37.0555 18.2267 36.6629 19.071 35.9 19.3496C35.1371 19.6282 34.2928 19.2356 34.0142 18.4727C33.6044 17.3505 33.0323 16.5776 32.2607 16.0653C31.8821 15.8139 31.421 15.6024 30.8527 15.451Z" fill="white"/>
<path d="M28.432 23.0066C28.4343 19.8148 28.4429 17.254 28.4634 15.1995C26.2502 15.2891 24.6957 17.1101 24.6957 18.9486C24.6957 20.393 25.0338 21.2014 25.6063 21.7517C26.1205 22.2458 26.98 22.686 28.432 23.0066Z" fill="white"/>
<path d="M30.8529 34.5371C31.4813 34.3203 32.071 33.9808 32.5684 33.5538C33.4711 32.7789 33.925 31.8505 33.925 31.0514C33.925 29.5997 33.5811 28.5624 32.9291 27.8212C32.4966 27.3294 31.8507 26.8795 30.882 26.5419C30.8803 29.8073 30.8725 32.4303 30.8529 34.5371Z" fill="white"/>
<path fill-rule="evenodd" clip-rule="evenodd" d="M16.6667 0.490196L22.549 0C19.4342 0.916126 16.9465 2.74899 14.4384 5.39216H7.67224C10.7502 2.03078 13.7594 0.490196 16.6667 0.490196ZM6.4209 6.86275H13.1594C10.873 9.73025 9.09424 13.3584 8.1367 17.6471H0.996608C2.11942 13.5117 4.09456 9.8015 6.4209 6.86275ZM7.35294 25C7.35294 22.9361 7.52384 20.9775 7.84314 19.1312H0.634885C0.226548 21.0211 0 22.9876 0 25C0 26.6715 0.138287 28.3114 0.395891 29.902H7.71478C7.47914 28.3282 7.35294 26.6908 7.35294 25ZM0.670609 31.3725H7.97005C8.79241 35.5304 10.3818 39.1947 12.4043 42.1569H5.24992C3.17311 39.1476 1.5339 35.4474 0.670609 31.3725ZM22.549 50L16.6667 49.5098C12.9431 49.5098 9.50192 47.5704 6.34323 43.6275H13.4889C16.2851 47.1366 19.219 49.4113 22.549 50Z" fill="white"/>
</svg>
