<svg width="31" height="30" viewBox="0 0 31 30" fill="none" xmlns="http://www.w3.org/2000/svg">
<path d="M12.5123 2.5C12.5123 1.11929 13.6316 0 15.0123 0C16.3931 0 17.5123 1.11929 17.5123 2.5L17.5123 3.26503C21.8254 4.37514 25.0123 8.29039 25.0123 12.95C25.0123 12.95 25.0908 16.2132 26.0123 18C27.0249 19.9634 30.0123 22 30.0123 22C30.0123 25 31.0125 25 15.0128 25C-0.987559 25 0.0123417 25 0.0123417 22C0.0123417 22 2.99977 19.9634 4.01233 18C4.93382 16.2132 5.01234 12.95 5.01234 12.95C5.01234 8.29039 8.19927 4.37514 12.5123 3.26503V2.5Z" fill="#0B8E74"/>
<path d="M19.0123 27C19.0123 29.2091 17.7738 30 15.0123 30C12.2509 30 11.0123 29.2091 11.0123 27H19.0123Z" fill="#0B8E74"/>
</svg>
