<svg width="50" height="50" viewBox="0 0 50 50" fill="none" xmlns="http://www.w3.org/2000/svg">
<path d="M0.00242392 41.011C0.00334012 28.9354 0.0039869 16.9134 0.00543881 4.89131C0.0057948 1.9404 1.94307 0.00665776 4.90688 0.00652462C12.8443 0.00616777 20.7817 0.00887471 28.7191 0.0150042C28.9585 0.0151887 29.218 -0.0571523 29.431 0.114224C29.4724 0.302049 29.3351 0.380311 29.2385 0.476697C27.2191 2.49307 25.1936 4.5033 23.1843 6.52973C22.9101 6.80632 22.6353 6.92077 22.2474 6.91986C17.5228 6.90869 12.7982 6.91264 8.07357 6.91272C7.91305 6.91272 7.75247 6.91603 7.592 6.91314C7.11009 6.90447 6.91132 7.09656 6.91192 7.61959C6.92534 19.2135 6.92524 30.8075 6.91292 42.4014C6.91239 42.9057 7.0887 43.0431 7.56408 43.0428C19.158 43.0339 30.752 43.0325 42.3459 43.0441C42.896 43.0447 43.0376 42.8478 43.0358 42.3226C43.0195 37.4889 43.0323 32.6551 43.0178 27.8213C43.0164 27.3549 43.159 27.0276 43.4873 26.6993C45.4293 24.7572 47.3486 22.7924 49.2798 20.8395C49.4364 20.6811 49.5563 20.4617 49.82 20.4291C50.0205 20.5763 49.942 20.7901 49.9421 20.9709C49.946 29.1402 49.95 37.3095 49.941 45.4788C49.9382 48.0446 47.9017 49.9729 45.1658 49.9884C41.4915 50.0091 37.817 49.9958 34.1426 49.996C24.4572 49.9965 14.7718 49.9968 5.08639 49.9954C4.40823 49.9953 3.73689 49.9598 3.08365 49.7306C1.2672 49.0932 0.0239806 47.3882 0.00695442 45.4519C-0.00590373 43.9896 0.00314746 42.527 0.00242392 41.011Z" fill="white"/>
<path d="M42.9512 16.1737C36.6752 22.4256 30.4261 28.651 24.0983 34.9547C21.8136 31.2007 18.781 28.1767 14.9956 25.9156C15.2164 25.4785 15.5582 25.2366 15.8416 24.9525C22.0989 18.6821 28.3657 12.4211 34.6186 6.14631C34.9672 5.79646 35.2374 5.73989 35.6808 5.97148C39.3341 7.87983 42.1093 10.6512 44.0046 14.3129C44.2103 14.7103 44.2088 14.9874 43.8525 15.2829C43.5383 15.5435 43.2679 15.857 42.9512 16.1737Z" fill="white"/>
<path d="M48.6252 10.5021C48.1105 11.0233 47.6163 11.5118 47.1372 12.0147C46.8869 12.2774 46.7211 12.3336 46.4935 11.9642C44.3727 8.52294 41.5786 5.74864 38.1532 3.60714C37.5721 3.24387 37.5676 3.21477 38.0528 2.72866C38.8454 1.9345 39.6396 1.14193 40.4306 0.346176C40.6095 0.166185 40.7846 -0.00482783 41.069 0.0174319C42.5094 0.130174 43.9258 0.345446 45.2957 0.839696C47.3688 1.58764 48.6376 3.06345 49.2854 5.12678C49.6441 6.26913 49.8161 7.44591 49.941 8.63274C49.9823 9.02477 49.8524 9.31461 49.5629 9.57287C49.2444 9.85702 48.9544 10.1731 48.6252 10.5021Z" fill="white"/>
<path d="M18.0173 38.6786C15.9684 38.679 13.9728 38.6658 11.9776 38.6896C11.492 38.6954 11.3311 38.5564 11.335 38.0583C11.3564 35.3504 11.3446 32.6422 11.3462 29.9341C11.3465 29.4971 12.0243 28.5689 12.4171 28.4574C12.5874 28.409 12.7293 28.4877 12.8733 28.5599C16.6613 30.4591 19.5137 33.2957 21.427 37.0793C21.5897 37.4013 21.5294 37.618 21.3057 37.8884C20.8316 38.4617 20.2995 38.798 19.5123 38.689C19.0404 38.6236 18.5519 38.678 18.0173 38.6786Z" fill="white"/>
</svg>
