<svg width="30" height="30" viewBox="0 0 30 30" fill="none" xmlns="http://www.w3.org/2000/svg">
<path d="M13 6C13 7.10457 12.1046 8 11 8C9.89546 8 9.00003 7.10457 9.00003 6V2C9.00003 0.89543 9.89546 0 11 0H28C29.1046 0 30 0.89543 30 2V28C30 29.1046 29.1046 30 28 30H11C9.89546 30 9.00003 29.1046 9.00003 28V24C9.00003 22.8954 9.89546 22 11 22C12.1046 22 13 22.8954 13 24V26H26.0039L26.0004 4H13V6Z" fill="#0B8E74"/>
<path d="M19.5 15C19.5 16.1046 18.6046 17 17.5 17H6.50003L8.00003 18.2676C8.59783 18.6134 9.00003 19.2597 9.00003 20C9.00003 21.1046 8.1046 22 7.00003 22C6.33813 22 5.75133 21.6785 5.3873 21.1831L0.868965 16.6497C0.344186 16.2892 0 15.6848 0 15C0 14.2597 0.402232 13.6134 1.00003 13.2676L5.31363 8.92434C5.6689 8.36851 6.29143 8 7.00003 8C8.1046 8 9.00003 8.89543 9.00003 10C9.00003 10.667 8.67356 11.2577 8.1717 11.621L6.50003 13H17.5C18.6046 13 19.5 13.8954 19.5 15Z" fill="#0B8E74"/>
</svg>
