<svg width="35" height="50" viewBox="0 0 35 50" fill="none" xmlns="http://www.w3.org/2000/svg">
<path d="M16.8342 26.1281C21.9671 26.1281 26.1282 21.9671 26.1282 16.8342C26.1282 11.7013 21.9671 7.5402 16.8342 7.5402C11.7013 7.5402 7.5402 11.7013 7.5402 16.8342C7.5402 21.9671 11.7013 26.1281 16.8342 26.1281ZM33.6709 17.0854C33.6709 19.3308 32.6904 22.4058 31.1475 25.8269C29.6127 29.2304 27.5515 32.9124 25.4527 36.3495C21.7958 42.3383 18.0455 47.5498 16.8159 49.1984C16.6442 48.9782 16.4221 48.6836 16.1536 48.3167C15.6115 47.576 14.9033 46.5729 14.0873 45.3729C12.4553 42.9729 10.3963 39.7918 8.37702 36.3567C6.35686 32.9202 4.38153 29.2381 2.91276 25.8344C1.43683 22.414 0.5 19.3358 0.5 17.0854C0.5 7.92555 7.92555 0.5 17.0854 0.5C26.2453 0.5 33.6709 7.92555 33.6709 17.0854Z" fill="white" stroke="white"/>
</svg>
