<svg width="100" height="100" viewBox="0 0 100 100" fill="none" xmlns="http://www.w3.org/2000/svg">
<path fill-rule="evenodd" clip-rule="evenodd" d="M50 100C77.6142 100 100 77.6142 100 50C100 22.3858 77.6142 0 50 0C22.3858 0 0 22.3858 0 50C0 77.6142 22.3858 100 50 100ZM45.2046 45.2046C45.2466 30.9155 45.6729 20 50 20C54.3271 20 54.7534 30.9155 54.7954 45.2046C69.0845 45.2466 80 45.6729 80 50C80 54.3271 69.0845 54.7534 54.7954 54.7954C54.7534 69.0845 54.3271 80 50 80C45.6729 80 45.2466 69.0845 45.2046 54.7954C30.9155 54.7534 20 54.3271 20 50C20 45.6729 30.9155 45.2466 45.2046 45.2046Z" fill="#84C382"/>
</svg>
