<svg width="100" height="100" viewBox="0 0 100 100" fill="none" xmlns="http://www.w3.org/2000/svg">
<path fill-rule="evenodd" clip-rule="evenodd" d="M50 100C77.6142 100 100 77.6142 100 50C100 22.3858 77.6142 0 50 0C22.3858 0 0 22.3858 0 50C0 77.6142 22.3858 100 50 100ZM76.9694 68.7586C83.0001 62.6048 83.0001 50.5408 83.0001 27C76.8385 27 71.2539 26.9279 66.1929 26.8625L66.1907 26.8625C64.2151 26.837 62.3193 26.8125 60.5001 26.7938V37.9463L60.752 37.9483C63.8419 37.9729 67.2473 38 71.0001 38C71.0001 38.9445 71.0019 39.8542 71.0036 40.7304V40.7341V40.7376V40.741V40.7444V40.7476C71.0234 50.8513 71.0345 56.494 68.2369 59.6355C64.6983 63.6091 56.6662 63.5811 38.4747 63.5178H38.4731C36.0069 63.5092 33.3539 63.5 30.5001 63.5C30.5001 46.1955 30.8688 40.5039 40.0001 38.7025V27.3497C20.8742 29.492 18.0001 38.76 18.0001 75C22.643 75 26.9542 75.0204 30.9575 75.0394C57.6276 75.1656 70.6302 75.2271 76.9694 68.7586ZM47.5001 19C47.2496 23.7608 45.7433 27.1945 44.3028 30.4783C42.8689 33.7471 41.5001 36.8673 41.5001 41C41.5001 42.7962 41.5001 49.029 46.9336 51.3669L50.7486 58.997C50.8875 59.2748 51.2253 59.3874 51.5031 59.2485C51.7785 59.1108 51.8941 58.7795 51.7658 58.4995C51.1742 57.2085 49.6697 53.7404 49.7039 51.9344C52.2618 51.1856 58.0001 45.4799 58.0001 38C58.0001 30.1276 55.7425 27.7353 48.653 20.2227L48.6495 20.219C48.2796 19.8271 47.8966 19.4213 47.5001 19Z" fill="white"/>
</svg>
